<svg id="logo-slogan" xmlns="http://www.w3.org/2000/svg" width="129.74" height="90" viewBox="0 0 129.74 90">
  <path id="Caminho_4948" data-name="Caminho 4948" d="M1149.062,546.127h-14.994V531.158Z" transform="translate(-1091.369 -508.705)" fill="#2e73d1"/>
  <path id="Caminho_4949" data-name="Caminho 4949" d="M1236.058,546.127h14.994V531.158Z" transform="translate(-1164.011 -508.705)" fill="#0538b8"/>
  <path id="Caminho_4950" data-name="Caminho 4950" d="M1210.024,505.1l11.243,11.224L1232.51,505.1Z" transform="translate(-1145.468 -490.136)" fill="#69ade5"/>
  <path id="Caminho_4951" data-name="Caminho 4951" d="M1134.068,467.967l22.491,22.453,7.5-7.484L1134.068,453Z" transform="translate(-1091.369 -452.999)" fill="#172e8c"/>
  <path id="Caminho_4952" data-name="Caminho 4952" d="M998.909,621.8l-4.641,10.512L989.627,621.8h-3.943V639.73h3.394V627.774l3.893,9.092h2.595l3.892-9.092V639.73h3.394V621.8Z" transform="translate(-985.684 -573.305)" fill="#172e8c"/>
  <path id="Caminho_4953" data-name="Caminho 4953" d="M1059.374,621.795l-5.789,17.935h3.718l1.2-4.035h5.814l1.173,4.035h3.867l-5.789-17.935Zm2.071,3.936,1.9,6.576H1059.5Z" transform="translate(-1034.046 -573.304)" fill="#172e8c"/>
  <path id="Caminho_4954" data-name="Caminho 4954" d="M1121.995,621.8l-3.319,5.655-3.343-5.655h-4.192l5.24,8.743-5.39,9.192h3.918l3.468-5.928,3.493,5.928h4.192l-5.365-8.967,5.215-8.968Z" transform="translate(-1074.933 -573.305)" fill="#172e8c"/>
  <path id="Caminho_4955" data-name="Caminho 4955" d="M1213.906,621.449l-4.641,10.512-4.641-10.512h-3.942v17.935h3.394V627.427l3.892,9.092h2.6l3.893-9.092v11.957h3.393V621.449Z" transform="translate(-1138.814 -573.057)" fill="#172e8c"/>
  <g id="Grupo_84" data-name="Grupo 84" transform="translate(82.554 48.291)">
    <path id="Caminho_4956" data-name="Caminho 4956" d="M1282.126,621.1a3.376,3.376,0,0,1,3.543,3.537V635.7a3.376,3.376,0,0,1-3.543,3.537h-6.013a3.377,3.377,0,0,1-3.543-3.537V624.639a3.376,3.376,0,0,1,3.543-3.537Zm-.05,4.235a.763.763,0,0,0-.848-.847h-4.217a.763.763,0,0,0-.848.847V635a.763.763,0,0,0,.848.847h4.217a.763.763,0,0,0,.848-.847Z" transform="translate(-1272.57 -621.102)" fill="#172e8c"/>
  </g>
  <path id="Caminho_4957" data-name="Caminho 4957" d="M1340.1,621.449v7.074h-6.188v-7.074h-3.593v17.935h3.593V631.91h6.188v7.473h3.593V621.449Z" transform="translate(-1231.15 -573.057)" fill="#172e8c"/>
  <g id="Grupo_85" data-name="Grupo 85" transform="translate(116.491 48.391)">
    <path id="Caminho_4958" data-name="Caminho 4958" d="M1399.886,639.383l-2.895-6.651H1394.1v6.651H1390.5V621.448h9.157a3.377,3.377,0,0,1,3.543,3.537v4.21a3.337,3.337,0,0,1-2.445,3.388l2.994,6.8Zm-.275-13.7a.763.763,0,0,0-.849-.847H1394.1v4.558h4.665a.763.763,0,0,0,.849-.847Z" transform="translate(-1390.504 -621.448)" fill="#172e8c"/>
  </g>
  <path id="Caminho_4959" data-name="Caminho 4959" d="M1100.117,713.991v4.723h-.825v-4.723h-1.5v-.735h3.817v.735Z" transform="translate(-1065.535 -638.491)" fill="#172e8c"/>
  <path id="Caminho_4960" data-name="Caminho 4960" d="M1116.233,718.714v-5.457h3.267v.735h-2.442v1.639h2.062v.727h-2.062v1.615h2.507v.743Z" transform="translate(-1078.666 -638.492)" fill="#172e8c"/>
  <g id="Grupo_86" data-name="Grupo 86" transform="translate(42.371 74.676)">
    <path id="Caminho_4961" data-name="Caminho 4961" d="M1136.373,718.494c-.4.032-.954.089-1.391.089-1.059,0-2.054-.315-2.054-1.7v-2.228c0-1.389,1.011-1.7,2.07-1.7.437,0,.963.056,1.359.089v.775s-.776-.1-1.318-.1c-1,0-1.286.291-1.286,1.211v1.582c0,.92.283,1.308,1.286,1.308.542,0,1.334-.1,1.334-.1Z" transform="translate(-1132.928 -712.948)" fill="#172e8c"/>
  </g>
  <path id="Caminho_4962" data-name="Caminho 4962" d="M1154.275,718.714l-2.563-4.133v4.133h-.825v-5.457h.817l2.571,4.142v-4.142h.825v5.457Z" transform="translate(-1103.348 -638.492)" fill="#172e8c"/>
  <g id="Grupo_87" data-name="Grupo 87" transform="translate(53.758 74.676)">
    <path id="Caminho_4963" data-name="Caminho 4963" d="M1173.324,714.852v1.816c0,.912.478,1.155,1.157,1.155s1.156-.242,1.156-1.155v-1.816c0-.9-.477-1.146-1.156-1.146s-1.157.242-1.157,1.146m3.138-.2v2.228c0,1.275-.921,1.7-1.981,1.7s-1.981-.428-1.981-1.7v-2.228c0-1.276.93-1.7,1.981-1.7s1.981.428,1.981,1.7" transform="translate(-1172.5 -712.947)" fill="#172e8c"/>
  </g>
  <path id="Caminho_4964" data-name="Caminho 4964" d="M1193.242,718.714v-5.457h.825v4.715h2.378v.743Z" transform="translate(-1133.515 -638.492)" fill="#172e8c"/>
  <g id="Grupo_88" data-name="Grupo 88" transform="translate(64.263 74.676)">
    <path id="Caminho_4965" data-name="Caminho 4965" d="M1209.833,714.852v1.816c0,.912.477,1.155,1.157,1.155s1.156-.242,1.156-1.155v-1.816c0-.9-.477-1.146-1.156-1.146s-1.157.242-1.157,1.146m3.138-.2v2.228c0,1.275-.922,1.7-1.981,1.7s-1.982-.428-1.982-1.7v-2.228c0-1.276.93-1.7,1.982-1.7s1.981.428,1.981,1.7" transform="translate(-1209.008 -712.947)" fill="#172e8c"/>
    <path id="Caminho_4966" data-name="Caminho 4966" d="M1231.8,718.583c-1.059,0-2.054-.315-2.054-1.7v-2.228c0-1.389,1.011-1.7,2.07-1.7.437,0,.962.056,1.359.088v.775s-.776-.1-1.318-.1c-1,0-1.286.291-1.286,1.211v1.582c0,.92.283,1.308,1.286,1.308.291,0,.655-.032.93-.056v-1.615H1231.7v-.727h1.917v3.043c-.987.081-1.439.121-1.811.121" transform="translate(-1223.782 -712.948)" fill="#172e8c"/>
  </g>
  <rect id="Retângulo_437" data-name="Retângulo 437" width="0.825" height="5.457" transform="translate(76.169 74.765)" fill="#172e8c"/>
  <path id="Caminho_4967" data-name="Caminho 4967" d="M1260.868,716.429h1.714l-.817-2.406h-.081Zm1.973.783h-2.232l-.517,1.5h-.857l1.884-5.458h1.213l1.884,5.458h-.857Z" transform="translate(-1180.518 -638.491)" fill="#172e8c"/>
  <path id="Caminho_4968" data-name="Caminho 4968" d="M1290.711,718.714v-5.457h3.267v.735h-2.442v1.639h2.062v.727h-2.062v1.615h2.507v.743Z" transform="translate(-1202.937 -638.492)" fill="#172e8c"/>
  <path id="Caminho_4969" data-name="Caminho 4969" d="M1310.437,716.4l1.415-3.14h.833v5.457h-.825v-3.673h-.032l-1.1,2.349h-.663l-1.1-2.349h-.032v3.673h-.825v-5.457h.833l1.415,3.14Z" transform="translate(-1215.327 -638.491)" fill="#172e8c"/>
  <path id="Caminho_4970" data-name="Caminho 4970" d="M1030.039,750.157h1.714l-.817-2.406h-.081Zm1.973.783h-2.232l-.518,1.5h-.857l1.884-5.457h1.213l1.884,5.457h-.857Z" transform="translate(-1016.112 -662.53)" fill="#172e8c"/>
  <g id="Grupo_89" data-name="Grupo 89" transform="translate(18.884 84.365)">
    <path id="Caminho_4971" data-name="Caminho 4971" d="M1054.108,748.388c0-.452-.194-.67-.7-.67h-1.27v1.7h1.27c.509,0,.7-.218.7-.67Zm.388,4.053-1.165-2.293h-1.2v2.293h-.825v-5.457h2.459a1.17,1.17,0,0,1,1.164,1.211v.743a1.188,1.188,0,0,1-.752,1.138l1.213,2.365Z" transform="translate(-1051.31 -746.894)" fill="#172e8c"/>
    <path id="Caminho_4972" data-name="Caminho 4972" d="M1072.645,752.31c-1.059,0-2.054-.315-2.054-1.7v-2.228c0-1.389,1.011-1.7,2.071-1.7.437,0,.962.056,1.358.089v.775s-.776-.1-1.318-.1c-1,0-1.286.291-1.286,1.211v1.582c0,.92.283,1.308,1.286,1.308.291,0,.655-.032.93-.057v-1.615h-1.092v-.727h1.916v3.044c-.987.081-1.439.121-1.811.121" transform="translate(-1065.043 -746.675)" fill="#172e8c"/>
  </g>
  <path id="Caminho_4973" data-name="Caminho 4973" d="M1091.083,750.157h1.714l-.817-2.406h-.081Zm1.973.783h-2.232l-.518,1.5h-.857l1.884-5.457h1.213l1.884,5.457h-.857Z" transform="translate(-1059.591 -662.53)" fill="#172e8c"/>
  <path id="Caminho_4974" data-name="Caminho 4974" d="M1114.684,750.124l1.415-3.14h.833v5.457h-.825v-3.673h-.032l-1.1,2.349h-.663l-1.1-2.349h-.032v3.673h-.825v-5.457h.833l1.415,3.14Z" transform="translate(-1075.904 -662.529)" fill="#172e8c"/>
  <path id="Caminho_4975" data-name="Caminho 4975" d="M1135.49,750.157h1.714l-.817-2.406h-.081Zm1.973.783h-2.232l-.518,1.5h-.857l1.884-5.457h1.213l1.884,5.457h-.857Z" transform="translate(-1091.218 -662.53)" fill="#172e8c"/>
  <g id="Grupo_90" data-name="Grupo 90" transform="translate(49.132 84.365)">
    <path id="Caminho_4976" data-name="Caminho 4976" d="M1159.974,750.905c0,.969-.655,1.4-1.828,1.4-.776,0-1.7-.081-1.7-.081v-.8s.914.1,1.585.1c.76,0,1.116-.218,1.116-.718v-.226c0-.363-.081-.6-.647-.662l-.889-.1a1.291,1.291,0,0,1-1.189-1.332v-.436c0-.936.671-1.372,1.8-1.372.526,0,1.173.056,1.488.089v.783s-.93-.1-1.391-.1c-.752,0-1.068.194-1.068.71v.218c0,.323.1.6.631.662l.93.113a1.229,1.229,0,0,1,1.164,1.267Z" transform="translate(-1156.424 -746.675)" fill="#172e8c"/>
    <path id="Caminho_4977" data-name="Caminho 4977" d="M1178.355,750.905c0,.969-.655,1.4-1.828,1.4-.776,0-1.7-.081-1.7-.081v-.8s.914.1,1.585.1c.76,0,1.116-.218,1.116-.718v-.226c0-.363-.081-.6-.647-.662l-.889-.1a1.291,1.291,0,0,1-1.189-1.332v-.436c0-.936.671-1.372,1.8-1.372.525,0,1.172.056,1.488.089v.783s-.93-.1-1.391-.1c-.752,0-1.068.194-1.068.71v.218c0,.323.105.6.631.662l.93.113a1.229,1.229,0,0,1,1.165,1.267Z" transform="translate(-1169.516 -746.675)" fill="#172e8c"/>
  </g>
  <path id="Caminho_4978" data-name="Caminho 4978" d="M1193.78,750.157h1.714l-.816-2.406h-.081Zm1.973.783h-2.232l-.518,1.5h-.857l1.884-5.457h1.213l1.884,5.457h-.857Z" transform="translate(-1132.734 -662.53)" fill="#172e8c"/>
  <path id="Caminho_4979" data-name="Caminho 4979" d="M1223.624,752.441v-5.457h3.267v.735h-2.442v1.639h2.063v.726h-2.062V751.7h2.507v.743Z" transform="translate(-1155.154 -662.53)" fill="#172e8c"/>
  <g id="Grupo_91" data-name="Grupo 91" transform="translate(75.943 84.365)">
    <path id="Caminho_4980" data-name="Caminho 4980" d="M1253.039,752.22c-.4.032-.954.089-1.391.089-1.059,0-2.054-.315-2.054-1.7v-2.228c0-1.389,1.011-1.7,2.07-1.7.437,0,.962.056,1.359.089v.775s-.776-.1-1.318-.1c-1,0-1.286.291-1.286,1.211v1.582c0,.92.283,1.308,1.286,1.308.542,0,1.334-.1,1.334-.1Z" transform="translate(-1249.594 -746.674)" fill="#172e8c"/>
    <path id="Caminho_4981" data-name="Caminho 4981" d="M1267.533,748.579V750.4c0,.912.477,1.154,1.156,1.154s1.156-.242,1.156-1.154v-1.816c0-.9-.477-1.146-1.156-1.146s-1.156.242-1.156,1.146m3.138-.2v2.228c0,1.276-.922,1.7-1.981,1.7s-1.981-.428-1.981-1.7v-2.228c0-1.275.93-1.7,1.981-1.7s1.981.428,1.981,1.7" transform="translate(-1261.783 -746.674)" fill="#172e8c"/>
  </g>
  <path id="Caminho_4982" data-name="Caminho 4982" d="M1290.839,752.441l-2.563-4.133v4.133h-.825v-5.457h.817l2.571,4.141v-4.141h.825v5.457Z" transform="translate(-1200.615 -662.53)" fill="#172e8c"/>
  <g id="Grupo_92" data-name="Grupo 92" transform="translate(93.055 84.365)">
    <path id="Caminho_4983" data-name="Caminho 4983" d="M1312.508,752.22c-.4.032-.954.089-1.391.089-1.059,0-2.054-.315-2.054-1.7v-2.228c0-1.389,1.011-1.7,2.071-1.7.436,0,.962.056,1.358.089v.775s-.776-.1-1.318-.1c-1,0-1.286.291-1.286,1.211v1.582c0,.92.283,1.308,1.286,1.308.542,0,1.334-.1,1.334-.1Z" transform="translate(-1309.063 -746.674)" fill="#172e8c"/>
    <path id="Caminho_4984" data-name="Caminho 4984" d="M1329.82,748.388c0-.452-.194-.67-.7-.67h-1.269v1.7h1.269c.51,0,.7-.218.7-.67Zm.388,4.053-1.165-2.293h-1.2v2.293h-.825v-5.457h2.458a1.17,1.17,0,0,1,1.165,1.211v.743a1.189,1.189,0,0,1-.752,1.138l1.213,2.365Z" transform="translate(-1321.854 -746.894)" fill="#172e8c"/>
  </g>
  <path id="Caminho_4985" data-name="Caminho 4985" d="M1346.865,752.441v-5.457h3.267v.735h-2.442v1.639h2.062v.726h-2.062V751.7h2.507v.743Z" transform="translate(-1242.932 -662.53)" fill="#172e8c"/>
  <path id="Caminho_4986" data-name="Caminho 4986" d="M1364.784,747.718v4.723h-.825v-4.723h-1.5v-.735h3.817v.735Z" transform="translate(-1254.042 -662.529)" fill="#172e8c"/>
  <g id="Grupo_93" data-name="Grupo 93" transform="translate(113.484 84.365)">
    <path id="Caminho_4987" data-name="Caminho 4987" d="M1380.881,748.579V750.4c0,.912.478,1.154,1.157,1.154s1.156-.242,1.156-1.154v-1.816c0-.9-.477-1.146-1.156-1.146s-1.157.242-1.157,1.146m3.138-.2v2.228c0,1.276-.922,1.7-1.981,1.7s-1.981-.428-1.981-1.7v-2.228c0-1.275.93-1.7,1.981-1.7s1.981.428,1.981,1.7" transform="translate(-1380.057 -746.674)" fill="#172e8c"/>
  </g>
</svg>
